<?xml version="1.0" standalone="no"?>
<!DOCTYPE svg PUBLIC "-//W3C//DTD SVG 20010904//EN"
 "http://www.w3.org/TR/2001/REC-SVG-20010904/DTD/svg10.dtd">
<svg version="1.0" xmlns="http://www.w3.org/2000/svg"
 width="160.000000pt" height="160.000000pt" viewBox="0 0 160.000000 160.000000"
 preserveAspectRatio="xMidYMid meet">
<metadata>
Created by potrace 1.11, written by Peter Selinger 2001-2013
</metadata>
<g transform="translate(0.000000,160.000000) scale(0.100000,-0.100000)"
fill="#000000" stroke="none">
<path d="M227 1530 c-31 -25 -53 -110 -43 -166 9 -43 59 -99 99 -110 82 -20
136 116 88 222 -33 72 -93 94 -144 54z"/>
<path d="M484 1519 c-15 -17 -19 -36 -19 -94 0 -67 3 -76 31 -112 41 -51 76
-63 105 -37 67 59 65 201 -3 248 -33 23 -91 20 -114 -5z"/>
<path d="M716 1359 c-21 -17 -26 -29 -26 -65 0 -105 82 -160 154 -103 45 36
30 121 -30 168 -34 27 -64 27 -98 0z"/>
<path d="M26 1268 c-11 -15 -16 -45 -16 -89 0 -57 4 -71 30 -107 47 -65 114
-69 150 -9 36 59 14 159 -45 205 -38 30 -98 30 -119 0z"/>
<path d="M327 1189 c-43 -42 -67 -93 -67 -144 0 -11 -9 -49 -20 -83 -38 -120
-18 -198 55 -222 53 -17 97 -7 176 41 62 37 79 43 162 51 51 5 107 17 126 26
48 25 73 75 68 132 -6 55 -30 78 -182 169 -105 63 -109 65 -190 69 l-82 4 -46
-43z"/>
<path d="M1222 863 c-49 -24 -82 -78 -82 -134 0 -58 21 -79 79 -79 51 0 90 19
125 60 30 36 33 77 11 120 -27 52 -73 63 -133 33z"/>
<path d="M906 829 c-38 -30 -56 -71 -56 -127 0 -59 12 -72 67 -72 90 0 143 46
143 125 0 78 -92 122 -154 74z"/>
<path d="M1401 664 c-30 -38 -30 -150 -1 -182 29 -31 99 -31 127 1 32 35 43
62 43 107 0 60 -41 100 -104 100 -36 0 -48 -5 -65 -26z"/>
<path d="M991 575 c-51 -25 -99 -45 -108 -45 -8 0 -30 -15 -49 -34 -28 -28
-34 -42 -34 -76 0 -73 28 -104 144 -159 87 -42 109 -57 159 -114 69 -79 106
-95 172 -77 24 7 54 23 67 37 22 24 23 31 23 191 0 100 -4 179 -11 197 -13 36
-74 92 -120 111 -19 8 -60 14 -92 14 -49 0 -73 -7 -151 -45z"/>
<path d="M1451 364 c-23 -29 -36 -101 -26 -141 11 -44 34 -63 76 -63 45 0 71
30 89 102 12 48 6 71 -28 111 -24 27 -86 23 -111 -9z"/>
</g>
</svg>
